<svg width="960" height="720" viewBox="0 0 960 720" fill="none" xmlns="http://www.w3.org/2000/svg">
  <rect width="960" height="720" rx="48" fill="#F8FFFC"/>
  <rect x="80" y="80" width="800" height="560" rx="36" fill="#E4F4EE"/>
  <path d="M160 360H800" stroke="#7CBEB1" stroke-width="8" stroke-linecap="round" stroke-dasharray="24 18"/>
  <path d="M480 160L520 320H440L480 160Z" fill="#FFECE1"/>
  <circle cx="480" cy="360" r="160" fill="#FFFFFF"/>
  <path d="M480 240C545 240 600 295 600 360C600 425 545 480 480 480C415 480 360 425 360 360C360 295 415 240 480 240Z" stroke="#A9D8CE" stroke-width="16"/>
  <path d="M480 270C528 270 568 310 568 358" stroke="#E39A7C" stroke-width="10" stroke-linecap="round"/>
  <path d="M480 330L600 360" stroke="#4E8075" stroke-width="10" stroke-linecap="round"/>
  <path d="M480 390L600 360" stroke="#4E8075" stroke-width="10" stroke-linecap="round"/>
  <circle cx="480" cy="360" r="26" fill="#83C5BE"/>
</svg>
